# xmcd
#
# Track frame offsets:
#	182
#	25050
#	54845
#	60962
#	86150
#	100767
#	123392
#	140760
#	158600
#	181512
#	199707
#	238652
#
# Disc length: 3308 seconds
#
# Revision: 13
# Processed by: cddbd v1.5.2PL0 Copyright (c) Steve Scherf et al.
# Submitted via: audiograbber 1.83.01
#
DISCID=8f0cea0c
DTITLE=Genesis - Duke
DYEAR=1980
DGENRE=Progressive Rock
TTITLE0=Behind the Lines
TTITLE1=Duchess
TTITLE2=Guide Vocal
TTITLE3=Man of Our Times
TTITLE4=Misunderstanding
TTITLE5=Heathaze
TTITLE6=Turn It On Again
TTITLE7=Alone Tonight
TTITLE8=Cul-De-Sac
TTITLE9=Please Don't Ask
TTITLE10=Duke's Travels
TTITLE11=Duke's End
EXTD=1980
EXTT0=
EXTT1=
EXTT2=
EXTT3=
EXTT4=
EXTT5=
EXTT6=
EXTT7=
EXTT8=
EXTT9=
EXTT10=
EXTT11=
PLAYORDER=
